<svg xmlns="http://www.w3.org/2000/svg" shape-rendering="geometricPrecision" text-rendering="geometricPrecision" image-rendering="optimizeQuality" fill-rule="evenodd" clip-rule="evenodd" viewBox="0 0 512 437.242"><path fill-rule="nonzero" d="M.723 313.756c-2.482-10.26 1.698-18.299 8.38-23.044a23.417 23.417 0 018.018-3.632c2.877-.7 5.88-.865 8.764-.452 8.127 1.166 15.534 6.417 18.013 16.677a632.525 632.525 0 014.317 19.091c1.566 7.418 2.52 12.234 3.418 16.772 4.445 22.443 7.732 36.512 16.021 43.526 8.775 7.423 25.366 9.985 57.167 9.985h268.042c29.359 0 44.674-2.807 52.736-10.093 7.768-7.023 10.805-20.735 14.735-41.777l.007-.043a1038.93 1038.93 0 013.426-17.758c1.298-6.427 2.722-13.029 4.34-19.703 2.484-10.256 9.886-15.503 18.008-16.677 2.861-.41 5.846-.242 8.722.449 2.905.699 5.679 1.935 8.068 3.633 6.672 4.741 10.843 12.762 8.38 22.997l-.011.044a494.136 494.136 0 00-3.958 17.974c-1.011 5.023-2.169 11.215-3.281 17.178l-.008.043c-5.792 31.052-10.544 52.357-26.462 67.319-15.681 14.741-40.245 20.977-84.699 20.977H124.823c-46.477 0-72.016-5.596-88.445-20.144-16.834-14.909-21.937-36.555-28.444-69.403-1.316-6.654-2.582-13.005-3.444-17.126-1.213-5.781-2.461-11.434-3.767-16.813zm165.549-143.439l65.092 68.466.204-160.91h47.595l-.204 160.791 66.774-70.174 34.53 32.848-125.184 131.556-123.336-129.729 34.529-32.848zm65.325-115.413l.028-22.041h47.594l-.028 22.041h-47.594zm.046-36.254L231.666 0h47.595l-.024 18.65h-47.594z"/></svg>