<svg id="Layer_1" data-name="Layer 1" xmlns="http://www.w3.org/2000/svg" viewBox="0 0 122.88 114.81"><title>printer</title><path d="M18.46,89.86H7.82A7.8,7.8,0,0,1,2.3,87.57l-.24-.26A7.82,7.82,0,0,1,0,82V35.44a7.81,7.81,0,0,1,2.3-5.53l.25-.23a7.77,7.77,0,0,1,5.27-2.06H20.13A8.07,8.07,0,0,1,20,26.14v-18a8.05,8.05,0,0,1,2.39-5.72h0A8.07,8.07,0,0,1,28.1,0H94.78a8.13,8.13,0,0,1,8.11,8.11v18a8.07,8.07,0,0,1-.14,1.48h12.31a7.81,7.81,0,0,1,5.51,2.29h0a7.8,7.8,0,0,1,2.3,5.52V82a7.84,7.84,0,0,1-7.82,7.82H104.42v20.31a4.63,4.63,0,0,1-1.36,3.28,4.32,4.32,0,0,1-.39.34,4.6,4.6,0,0,1-2.89,1H23.1a4.63,4.63,0,0,1-3.28-1.36,3.06,3.06,0,0,1-.34-.39,4.6,4.6,0,0,1-1-2.89V89.86ZM27,27.62H95.91l.19-.17a1.86,1.86,0,0,0,.55-1.31v-18a1.88,1.88,0,0,0-1.87-1.87H28.1a1.87,1.87,0,0,0-1.32.55h0a1.87,1.87,0,0,0-.54,1.32v18a1.84,1.84,0,0,0,.55,1.31l.19.17Zm9.3,71.71a2.4,2.4,0,0,1,0-4.8H63.64a2.4,2.4,0,0,1,0,4.8Zm0-14.56a2.4,2.4,0,0,1,0-4.8H86.61a2.4,2.4,0,0,1,0,4.8ZM7.07,60.61H115.81V35.44a.76.76,0,0,0-.22-.54.77.77,0,0,0-.53-.22H7.82a.76.76,0,0,0-.46.16l-.07.07a.76.76,0,0,0-.22.53V60.61Zm108.74,7.07H102.19a4.13,4.13,0,0,1,.87.69,4.63,4.63,0,0,1,1.36,3.28V82.79h10.64a.75.75,0,0,0,.53-.22.79.79,0,0,0,.22-.53V67.68Zm-95.12,0H7.07V82a.81.81,0,0,0,.15.46l.07.07a.75.75,0,0,0,.53.22H18.46V71.65a4.63,4.63,0,0,1,1.36-3.28,4.13,4.13,0,0,1,.87-.69Zm76.67,4.23H25.52v35.83H97.36V71.91Z"/></svg>